
<svg width="307px" height="40px" viewBox="165 9 307 40" version="1.1" xmlns="http://www.w3.org/2000/svg" xmlns:xlink="http://www.w3.org/1999/xlink">
    <!-- Generator: Sketch 39.1 (31720) - http://www.bohemiancoding.com/sketch -->
    <desc>Created with Sketch.</desc>
    <defs></defs>
    <g id="ash-inline-color" stroke="none" stroke-width="1" fill="none" fill-rule="evenodd" transform="translate(165.000000, 9.000000)">
        <g id="Group-7" transform="translate(70.309370, 5.459924)" fill="#FFFFFF">
            <path d="M17.2219773,18.6512513 L13.2581625,9.96683954 L13.1392813,9.96683954 L9.25477601,18.6512513 L17.2219773,18.6512513 L17.2219773,18.6512513 Z M0.0985965681,27.0584799 L12.4256616,0.493432489 C12.5447091,0.256651127 12.7427335,0.0594437126 13.0997096,0.0594437126 L13.4959248,0.0594437126 C13.8923063,0.0594437126 14.0510917,0.256651127 14.1698066,0.493432489 L26.3779905,27.0584799 C26.6155866,27.5724445 26.2985146,28.0854156 25.7041087,28.0854156 L22.2557228,28.0854156 C21.6609843,28.0854156 21.3836503,27.8487998 21.1059837,27.2957581 L19.1639805,23.0327 L7.31277278,23.0327 L5.37043702,27.2957581 C5.21181792,27.6908352 4.85500808,28.0854156 4.22103048,28.0854156 L0.772644607,28.0854156 C0.177906118,28.0854156 -0.138999546,27.5724445 0.0985965681,27.0584799 L0.0985965681,27.0584799 Z" id="Fill-1"></path>
            <path d="M29.1918999,1.20394216 C29.1918999,0.809196166 29.5485435,0.453858541 29.944925,0.453858541 L33.7103828,0.453858541 C34.1465022,0.453858541 34.4635741,0.809196166 34.4635741,1.20394216 L34.4635741,17.3489539 C34.4635741,20.7039636 36.7623872,23.3484637 40.2109393,23.3484637 C43.6594915,23.3484637 45.9977099,20.7039636 45.9977099,17.3880311 L45.9977099,1.20394216 C45.9977099,0.809196166 46.3149481,0.453858541 46.7509012,0.453858541 L50.5165253,0.453858541 C50.9129068,0.453858541 51.2695504,0.809196166 51.2695504,1.20394216 L51.2695504,17.624978 C51.2695504,23.6249846 46.4735672,28.479996 40.2109393,28.479996 C33.9878831,28.479996 29.1918999,23.6249846 29.1918999,17.624978 L29.1918999,1.20394216" id="Fill-3"></path>
            <path d="M70.3342692,0.0594437126 C73.9017026,0.0594437126 77.3103505,1.44072352 80.0055451,3.73038274 C80.322617,4.04598083 80.3623549,4.51987472 80.0449504,4.83530723 L77.5878508,7.40132176 C77.2707789,7.7174166 76.9141353,7.7174166 76.5571592,7.40132176 C74.8529183,5.90132011 72.7521298,5.11166254 70.5720316,5.11166254 C65.6174294,5.11166254 61.6933525,9.33547777 61.6933525,14.2699682 C61.6933525,19.164388 65.6174294,23.3090554 70.6117695,23.3090554 C72.831273,23.3090554 74.5356802,22.637954 75.3284431,22.3220248 L75.3284431,18.967015 L72.1575575,18.967015 C71.7216044,18.967015 71.4045325,18.6512513 71.4045325,18.2566709 L71.4045325,15.1379458 C71.4045325,14.7037914 71.7216044,14.3880278 72.1575575,14.3880278 L79.7676164,14.3880278 C80.1641642,14.3880278 80.4812361,14.7433654 80.4812361,15.1379458 L80.4812361,25.2432114 C80.4812361,25.558975 80.322617,25.756348 80.1641642,25.8749043 C80.1641642,25.8749043 76.0813019,28.4407532 70.3342692,28.4407532 C62.4465438,28.4407532 56.1046063,22.2034685 56.1046063,14.309211 C56.1046063,6.41478794 62.4465438,0.0594437126 70.3342692,0.0594437126" id="Fill-4"></path>
            <path d="M85.9108643,1.20394216 C85.9108643,0.809196166 86.2673416,0.453858541 86.6637231,0.453858541 L90.4293472,0.453858541 C90.8654666,0.453858541 91.1827048,0.809196166 91.1827048,1.20394216 L91.1827048,17.3489539 C91.1827048,20.7039636 93.4805202,23.3484637 96.9305688,23.3484637 C100.378955,23.3484637 102.716674,20.7039636 102.716674,17.3880311 L102.716674,1.20394216 C102.716674,0.809196166 103.034245,0.453858541 103.469866,0.453858541 L107.235822,0.453858541 C107.631539,0.453858541 107.989014,0.809196166 107.989014,1.20394216 L107.989014,17.624978 C107.989014,23.6249846 103.192199,28.479996 96.9305688,28.479996 C90.7068475,28.479996 85.9108643,23.6249846 85.9108643,17.624978 L85.9108643,1.20394216" id="Fill-5"></path>
            <path d="M113.179882,24.2167724 L114.608119,21.7696453 C114.924027,21.2169347 115.59741,21.2169347 115.954885,21.4934556 C116.152743,21.6116807 119.363366,23.9409139 121.940511,23.9409139 C124.000564,23.9409139 125.546851,22.5985457 125.546851,20.901171 C125.546851,18.8878671 123.84261,17.5065873 120.512274,16.1642191 C116.787884,14.6647142 113.061832,12.2959071 113.061832,7.6382687 C113.061832,4.12479756 115.677218,0.0594437126 121.980415,0.0594437126 C126.022376,0.0594437126 129.114949,2.11165924 129.906382,2.70377823 C130.303761,2.94105633 130.421811,3.61182647 130.144145,4.00690363 L128.639425,6.25665773 C128.321854,6.73022046 127.726617,7.04598413 127.251092,6.73022046 C126.935184,6.53268188 123.922418,4.55928308 121.742653,4.55928308 C119.483079,4.55928308 118.254363,6.05895357 118.254363,7.32250502 C118.254363,9.17767872 119.720841,10.4405678 122.931465,11.7435277 C126.775567,13.2826065 131.214907,15.5721002 131.214907,20.6645553 C131.214907,24.7300747 127.686712,28.479996 122.098465,28.479996 C117.103792,28.479996 114.170835,26.151094 113.379403,25.4010104 C113.021928,25.0458384 112.82407,24.8486309 113.179882,24.2167724" id="Fill-6"></path>
            <path d="M140.013777,5.19097602 L133.950005,5.19097602 C133.512722,5.19097602 133.196814,4.83530723 133.196814,4.44072682 L133.196814,1.20394216 C133.196814,0.809196166 133.512722,0.453858541 133.950005,0.453858541 L151.271743,0.453858541 C151.707364,0.453858541 152.023272,0.809196166 152.023272,1.20394216 L152.023272,4.44072682 C152.023272,4.83530723 151.707364,5.19097602 151.271743,5.19097602 L145.206308,5.19097602 L145.206308,27.335332 C145.206308,27.730078 144.848833,28.0854156 144.453117,28.0854156 L140.766969,28.0854156 C140.371252,28.0854156 140.013777,27.730078 140.013777,27.335332 L140.013777,5.19097602" id="Fill-8"></path>
            <path d="M178.421547,18.6512513 L174.457732,9.96683954 L174.338019,9.96683954 L170.454013,18.6512513 L178.421547,18.6512513 L178.421547,18.6512513 Z M161.297667,27.0584799 L173.624732,0.493432489 C173.744445,0.256651127 173.942303,0.0594437126 174.298115,0.0594437126 L174.695494,0.0594437126 C175.091211,0.0594437126 175.250827,0.256651127 175.368877,0.493432489 L187.577893,27.0584799 C187.813992,27.5724445 187.498084,28.0854156 186.902847,28.0854156 L183.454461,28.0854156 C182.860886,28.0854156 182.58322,27.8487998 182.305553,27.2957581 L180.36355,23.0327 L168.51201,23.0327 L166.570007,27.2957581 C166.412053,27.6908352 166.054578,28.0854156 165.419436,28.0854156 L161.972713,28.0854156 C161.377476,28.0854156 161.059905,27.5724445 161.297667,27.0584799 L161.297667,27.0584799 Z" id="Fill-9"></path>
            <path d="M189.558137,24.2167724 L190.984712,21.7696453 C191.302282,21.2169347 191.975665,21.2169347 192.33314,21.4934556 C192.530998,21.6116807 195.741622,23.9409139 198.318767,23.9409139 C200.37882,23.9409139 201.925106,22.5985457 201.925106,20.901171 C201.925106,18.8878671 200.220866,17.5065873 196.892192,16.1642191 C193.16614,14.6647142 189.440087,12.2959071 189.440087,7.6382687 C189.440087,4.12479756 192.055474,0.0594437126 198.357008,0.0594437126 C202.400631,0.0594437126 205.493205,2.11165924 206.284638,2.70377823 C206.682017,2.94105633 206.800067,3.61182647 206.5224,4.00690363 L205.016017,6.25665773 C204.700109,6.73022046 204.104872,7.04598413 203.629347,6.73022046 C203.313439,6.53268188 200.300674,4.55928308 198.119246,4.55928308 C195.859672,4.55928308 194.632618,6.05895357 194.632618,7.32250502 C194.632618,9.17767872 196.099097,10.4405678 199.30972,11.7435277 C203.153823,13.2826065 207.593162,15.5721002 207.593162,20.6645553 C207.593162,24.7300747 204.064968,28.479996 198.476721,28.479996 C193.482048,28.479996 190.549091,26.151094 189.755995,25.4010104 C189.400183,25.0458384 189.202325,24.8486309 189.558137,24.2167724" id="Fill-11"></path>
            <path d="M212.66598,1.20394216 C212.66598,0.809196166 213.023455,0.453858541 213.419172,0.453858541 L217.10532,0.453858541 C217.540941,0.453858541 217.858511,0.809196166 217.858511,1.20394216 L217.858511,11.6643798 L230.780814,11.6643798 L230.780814,1.20394216 C230.780814,0.809196166 231.096722,0.453858541 231.534005,0.453858541 L235.180249,0.453858541 C235.575965,0.453858541 235.93344,0.809196166 235.93344,1.20394216 L235.93344,27.335332 C235.93344,27.730078 235.575965,28.0854156 235.180249,28.0854156 L231.534005,28.0854156 C231.096722,28.0854156 230.780814,27.730078 230.780814,27.335332 L230.780814,16.4405744 L217.858511,16.4405744 L217.858511,27.335332 C217.858511,27.730078 217.540941,28.0854156 217.10532,28.0854156 L213.419172,28.0854156 C213.023455,28.0854156 212.66598,27.730078 212.66598,27.335332 L212.66598,1.20394216" id="Fill-12"></path>
        </g>
        <g id="Group-16">
            <path d="M27.5521546,32.9254596 C31.2867092,32.9254596 34.4100172,35.4540908 35.2056424,39.0019317 L55.0920996,39.0019317 L27.5459725,0.0775719844 L0,39.0019317 L19.8991303,39.0019317 C20.6944464,35.4540908 23.817909,32.9254596 27.5521546,32.9254596" id="Fill-13" fill="#41B1D3"></path>
            <path d="M55.0920996,36.8868944 L35.2056424,36.8868944 C35.2022423,36.8606781 35.1988422,36.8344619 35.1954421,36.8082457 L55.0478982,36.8082457 L55.0478982,36.7774349 L55.0920996,36.8868944" id="Fill-14" fill="#42B1D3"></path>
            <path d="M19.8991303,39.0019317 L0,39.0019317 L27.5459725,0.0775719844 L27.5526182,0.0868067445 L27.5526182,32.9254596 L27.5521546,32.9254596 C23.817909,32.9254596 20.6944464,35.4540908 19.8991303,39.0019317" id="Fill-15" fill="#42B1D3"></path>
        </g>
        <path d="M55.0478982,38.9571431 L35.1954421,38.9571431 C34.3837437,35.4330048 31.2710996,32.9257674 27.5526182,32.9254596 L27.5526182,0.0868067445 L55.0478982,38.9395971 L55.0478982,38.9571431" id="Fill-17" fill="#288FB0"></path>
    </g>
</svg>